<svg xmlns="http://www.w3.org/2000/svg" width="27.823" height="30.214" viewBox="0 0 27.823 30.214"><defs><style>.a{fill:#69a1ff;}</style></defs><g transform="translate(-24.714 -16.42)"><path class="a" d="M317.3,313.047v8.732q-.858.124-1.96.214t-2.084.092q-3.188,0-4.352-1.96t-1.164-6.374v-.7h-9.131v1.807a25.544,25.544,0,0,0,.673,6.067,12.075,12.075,0,0,0,2.268,4.75,10.372,10.372,0,0,0,4.321,3.094,18.326,18.326,0,0,0,6.833,1.1,49.424,49.424,0,0,0,7.722-.582,51.059,51.059,0,0,0,6.006-1.256V313.047Z" transform="translate(-273.894 -283.235)"/><circle class="a" cx="3.769" cy="3.769" r="3.769" transform="translate(43.98 16.42)"/><path class="a" d="M307.819,305.537c.25-.235.063-.811,0-1a5.162,5.162,0,0,0-5.025-3.016c-1.82.095-4.005,1.219-4.021,2.513a1.8,1.8,0,0,0,1,1.508c1.409.694,2.6-1.111,5.026-1C306.4,304.6,307.4,305.931,307.819,305.537Z" transform="translate(-273.889 -283.589)"/></g></svg>