<svg id="Grupo_219" data-name="Grupo 219" xmlns="http://www.w3.org/2000/svg" width="966.958" height="183.454" viewBox="0 0 966.958 183.454">
  <defs>
    <style>
      .cls-1 {
        fill: #ffffff;
      }

      .cls-2 {
        fill: #ff8000;
      }
    </style>
  </defs>
  <path id="Caminho_2025" data-name="Caminho 2025" class="cls-1" d="M272.209,293.739l34.6-5.577v36h41.567v28.8H306.809v42.962q0,10.914,3.831,17.415t15.443,6.5a65.9,65.9,0,0,0,11.494-1.047,59.123,59.123,0,0,0,10.8-2.9l4.878,26.937a98.05,98.05,0,0,1-13.935,4.413,81.21,81.21,0,0,1-18.809,1.859q-14.166,0-23.457-3.835a36.766,36.766,0,0,1-14.861-10.682,39.737,39.737,0,0,1-7.78-16.6,97.933,97.933,0,0,1-2.2-21.6Z" transform="translate(-272.209 -266.103)"/>
  <path id="Caminho_2026" data-name="Caminho 2026" class="cls-1" d="M445.994,458.77q-4.646,1.394-10.682,2.671t-12.658,2.207q-6.62.926-13.467,1.508t-13.123.582a76.808,76.808,0,0,1-26.937-4.413,54.065,54.065,0,0,1-19.969-12.654A54.874,54.874,0,0,1,336.731,428.7a76.226,76.226,0,0,1-4.292-26.355,90.148,90.148,0,0,1,3.714-26.824A58.369,58.369,0,0,1,346.835,355.2,45.727,45.727,0,0,1,363.9,342.426a57.3,57.3,0,0,1,23.106-4.409,54.537,54.537,0,0,1,12.888,1.39,69.842,69.842,0,0,1,11.494,3.949V288.087l34.6-5.573Zm-78.26-58.057q0,16.028,7.2,25.781t21.368,9.752q4.64,0,8.588-.348t6.5-.812V372.151a30.044,30.044,0,0,0-8.475-3.484,40.965,40.965,0,0,0-10.565-1.39Q367.734,367.277,367.734,400.713Z" transform="translate(-97.204 -282.514)"/>
  <path id="Caminho_2027" data-name="Caminho 2027" class="cls-1" d="M488.409,360.641A79.474,79.474,0,0,1,484.23,387a57.313,57.313,0,0,1-12.076,20.434,54.333,54.333,0,0,1-18.927,13.119A63.147,63.147,0,0,1,428.5,425.2a62.5,62.5,0,0,1-24.5-4.644,54.26,54.26,0,0,1-18.927-13.119A59.965,59.965,0,0,1,372.764,387a75.55,75.55,0,0,1-4.413-26.359,73.038,73.038,0,0,1,4.527-26.242,59.628,59.628,0,0,1,12.541-20.2,56.372,56.372,0,0,1,19.044-13.006,61.35,61.35,0,0,1,24.035-4.644,61.973,61.973,0,0,1,24.265,4.644A55.214,55.214,0,0,1,471.689,314.2,59.077,59.077,0,0,1,484,334.4,74.693,74.693,0,0,1,488.409,360.641Zm-35.3,0q0-16.023-6.386-25.2T428.5,326.272q-11.846,0-18.349,9.174t-6.5,25.2q0,16.023,6.5,25.429t18.349,9.4q11.845,0,18.227-9.4T453.11,360.641Z" transform="translate(7.142 -241.742)"/>
  <path id="Caminho_2028" data-name="Caminho 2028" class="cls-1" d="M519.488,401.643a77.248,77.248,0,0,1-4.3,26.476,55.963,55.963,0,0,1-12.424,20.2,54.606,54.606,0,0,1-19.973,12.885,74.931,74.931,0,0,1-26.937,4.53q-6.269,0-13.123-.582t-13.466-1.508q-6.62-.932-12.654-2.207t-10.686-2.671V288.087l34.6-5.573v60.841a64.729,64.729,0,0,1,12.076-3.949,62.189,62.189,0,0,1,13.467-1.39,55.149,55.149,0,0,1,22.992,4.527,45.116,45.116,0,0,1,16.72,12.888A57.974,57.974,0,0,1,516,375.518,91.678,91.678,0,0,1,519.488,401.643Zm-35.3-.929q0-33.44-24.613-33.436a40.971,40.971,0,0,0-10.569,1.39,30,30,0,0,0-8.475,3.484v62.935q2.548.463,6.5.812t8.592.348q14.16,0,21.364-9.752T484.189,400.713Z" transform="translate(116.326 -282.514)"/>
  <path id="Caminho_2029" data-name="Caminho 2029" class="cls-1" d="M440.354,361.8q0-16.251,5-28.448a60.95,60.95,0,0,1,13.119-20.317,54.6,54.6,0,0,1,18.692-12.31,58.583,58.583,0,0,1,21.715-4.179q26.005,0,41.1,15.907t15.1,46.793q0,3.023-.23,6.62c-.156,2.4-.312,4.527-.465,6.386H475.883a22.967,22.967,0,0,0,9.991,16.95q8.817,6.274,23.684,6.272a100.092,100.092,0,0,0,18.692-1.742,70.715,70.715,0,0,0,14.978-4.3l4.648,28.1a47.951,47.951,0,0,1-7.432,2.789,98.765,98.765,0,0,1-10.334,2.437q-5.694,1.048-12.189,1.742a122.042,122.042,0,0,1-13.006.7q-16.491,0-28.679-4.874a55.867,55.867,0,0,1-20.2-13.353,52.894,52.894,0,0,1-11.842-20.087A79.575,79.575,0,0,1,440.354,361.8Zm81.279-13.236a35.809,35.809,0,0,0-1.511-8.592,21.558,21.558,0,0,0-3.945-7.432,21.194,21.194,0,0,0-6.733-5.339,21.957,21.957,0,0,0-10.1-2.093,23.274,23.274,0,0,0-9.987,1.976,20.674,20.674,0,0,0-6.967,5.226,23.415,23.415,0,0,0-4.292,7.546,49.194,49.194,0,0,0-2.211,8.709Z" transform="translate(216.354 -241.742)"/>
  <path id="Caminho_2030" data-name="Caminho 2030" class="cls-1" d="M543.675,356.811q0-16.72-4.292-23.687t-14.748-6.964a67.026,67.026,0,0,0-6.733.347q-3.486.346-6.737.812V421.6h-34.6V303.632q4.411-1.16,10.334-2.441t12.541-2.32q6.614-1.043,13.584-1.625t13.7-.582q13.234,0,21.481,3.367a48.486,48.486,0,0,1,13.584,8.014,64.674,64.674,0,0,1,34.834-11.381q14.628,0,24.035,4.066a36.188,36.188,0,0,1,14.978,11.494,43.49,43.49,0,0,1,7.663,17.65,113.841,113.841,0,0,1,2.09,22.758V421.6h-34.6v-64.79q0-16.72-4.3-23.687t-14.744-6.964a31.245,31.245,0,0,0-7.78,1.39,30.248,30.248,0,0,0-8.245,3.484,53.1,53.1,0,0,1,2.089,11.264q.463,5.917.465,12.654V421.6h-34.6Z" transform="translate(321.569 -241.397)"/>
  <path id="Caminho_2031" data-name="Caminho 2031" class="cls-1" d="M369.432,313.047v33.088q-3.251.468-7.429.812t-7.9.348q-12.08,0-16.489-7.428t-4.409-24.152v-2.668h-34.6v6.846a96.8,96.8,0,0,0,2.55,22.988,45.755,45.755,0,0,0,8.592,18,39.3,39.3,0,0,0,16.372,11.724q10.334,4.183,25.894,4.183a187.282,187.282,0,0,0,29.261-2.207,193.441,193.441,0,0,0,22.758-4.761V313.047Z" transform="translate(-195.504 -193.797)"/>
  <circle id="Elipse_25" data-name="Elipse 25" class="cls-2" cx="14.281" cy="14.281" r="14.281" transform="translate(176.109 68.504)"/>
  <path id="Caminho_2032" data-name="Caminho 2032" class="cls-2" d="M333.049,316.771c.949-.891.238-3.074,0-3.808-2.05-6.288-10.393-11.877-19.04-11.428-6.9.359-15.177,4.62-15.236,9.522a6.807,6.807,0,0,0,3.808,5.714c5.339,2.628,9.846-4.21,19.044-3.808C327.66,313.224,331.448,318.263,333.049,316.771Z" transform="translate(-195.022 -227.321)"/>
</svg>
